<svg xmlns="http://www.w3.org/2000/svg" viewBox="0 0 280 60" fill="none">
  <defs>
    <linearGradient id="grad" x1="0%" y1="0%" x2="100%" y2="100%">
      <stop offset="0%" style="stop-color:#6366f1"/>
      <stop offset="100%" style="stop-color:#22d3ee"/>
    </linearGradient>
    <linearGradient id="grad2" x1="0%" y1="0%" x2="100%" y2="100%">
      <stop offset="0%" style="stop-color:#6366f1"/>
      <stop offset="50%" style="stop-color:#22d3ee"/>
      <stop offset="100%" style="stop-color:#22d3ee"/>
    </linearGradient>
  </defs>
  <!-- Brain/Circuit Icon -->
  <g transform="translate(5, 5)">
    <!-- Outer circle -->
    <circle cx="25" cy="25" r="23" stroke="url(#grad)" stroke-width="2.5" fill="none"/>
    <!-- Brain shape -->
    <path d="M17 18c0-3 2-5 5-5s5 2 5 5c2-1 5 0 5 3s-2 4-4 4c1 2 0 5-3 5s-4-2-4-3c0 1-1 3-4 3s-4-3-3-5c-2 0-4-1-4-4s3-4 5-3z" fill="url(#grad)" opacity="0.9"/>
    <!-- Circuit dots -->
    <circle cx="14" cy="25" r="2" fill="#22d3ee"/>
    <circle cx="36" cy="25" r="2" fill="#22d3ee"/>
    <circle cx="25" cy="14" r="2" fill="#6366f1"/>
    <circle cx="25" cy="36" r="2" fill="#6366f1"/>
    <!-- Circuit lines -->
    <line x1="5" y1="25" x2="12" y2="25" stroke="#22d3ee" stroke-width="1.5" opacity="0.6"/>
    <line x1="38" y1="25" x2="45" y2="25" stroke="#22d3ee" stroke-width="1.5" opacity="0.6"/>
    <line x1="25" y1="5" x2="25" y2="12" stroke="#6366f1" stroke-width="1.5" opacity="0.6"/>
    <line x1="25" y1="38" x2="25" y2="45" stroke="#6366f1" stroke-width="1.5" opacity="0.6"/>
  </g>
  <!-- SEO text -->
  <text x="62" y="38" font-family="Inter, system-ui, sans-serif" font-weight="900" font-size="32" fill="#f8fafc">SEO</text>
  <!-- par text -->
  <text x="130" y="38" font-family="Inter, system-ui, sans-serif" font-weight="400" font-size="22" fill="#94a3b8">par</text>
  <!-- AI text with gradient -->
  <text x="168" y="38" font-family="Inter, system-ui, sans-serif" font-weight="900" font-size="32" fill="url(#grad)">AI</text>
  <!-- Tagline -->
  <text x="62" y="52" font-family="Inter, system-ui, sans-serif" font-weight="500" font-size="9" fill="#94a3b8" letter-spacing="2">INTELLIGENCE ARTIFICIELLE SEO</text>
</svg>